<svg width="50" height="32.57" viewBox="0 0 174 57" fill="none" xmlns="http://www.w3.org/2000/svg">
<path d="M15.7875 28.5009L12.3646 26.545C6.28707 23.0521 2.51482 16.5555 2.51482 9.5H0V26.6847C0 32.2732 3.21339 37.4426 8.31291 39.8875L15.8574 43.5201L15.7913 28.5009L15.7875 28.5009Z" fill="url(#paint0_linear_484_9360)"/>
<path d="M15.7984 28.4991L19.2214 30.455C25.2989 33.9479 29.0711 40.4445 29.0711 47.5H31.5859V30.3153C31.5859 24.7268 28.3725 19.5574 23.273 17.1125L15.7285 13.4799L15.7946 28.4991L15.7984 28.4991Z" fill="url(#paint1_linear_484_9360)"/>
<path d="M56.2579 15.476V19.77H49.1899V42H43.8699V19.77H36.8019V15.476H56.2579ZM58.7716 31.398C58.7716 29.27 59.1896 27.3827 60.0256 25.736C60.8869 24.0893 62.0396 22.8227 63.4836 21.936C64.9529 21.0493 66.5869 20.606 68.3856 20.606C69.9562 20.606 71.3242 20.9227 72.4896 21.556C73.6802 22.1893 74.6302 22.9873 75.3396 23.95V20.948H80.6976V42H75.3396V38.922C74.6556 39.91 73.7056 40.7333 72.4896 41.392C71.2989 42.0253 69.9182 42.342 68.3476 42.342C66.5742 42.342 64.9529 41.886 63.4836 40.974C62.0396 40.062 60.8869 38.7827 60.0256 37.136C59.1896 35.464 58.7716 33.5513 58.7716 31.398ZM75.3396 31.474C75.3396 30.182 75.0862 29.08 74.5796 28.168C74.0729 27.2307 73.3889 26.5213 72.5276 26.04C71.6662 25.5333 70.7416 25.28 69.7536 25.28C68.7656 25.28 67.8536 25.5207 67.0176 26.002C66.1816 26.4833 65.4976 27.1927 64.9656 28.13C64.4589 29.042 64.2056 30.1313 64.2056 31.398C64.2056 32.6647 64.4589 33.7793 64.9656 34.742C65.4976 35.6793 66.1816 36.4013 67.0176 36.908C67.8789 37.4147 68.7909 37.668 69.7536 37.668C70.7416 37.668 71.6662 37.4273 72.5276 36.946C73.3889 36.4393 74.0729 35.73 74.5796 34.818C75.0862 33.8807 75.3396 32.766 75.3396 31.474ZM93.9495 42.342C92.2268 42.342 90.6815 42.038 89.3135 41.43C87.9455 40.7967 86.8562 39.948 86.0455 38.884C85.2602 37.82 84.8295 36.642 84.7535 35.35H90.1115C90.2128 36.1607 90.6055 36.832 91.2895 37.364C91.9988 37.896 92.8728 38.162 93.9115 38.162C94.9248 38.162 95.7102 37.9593 96.2675 37.554C96.8502 37.1487 97.1415 36.6293 97.1415 35.996C97.1415 35.312 96.7868 34.8053 96.0775 34.476C95.3935 34.1213 94.2915 33.7413 92.7715 33.336C91.2008 32.956 89.9088 32.5633 88.8955 32.158C87.9075 31.7527 87.0462 31.132 86.3115 30.296C85.6022 29.46 85.2475 28.3327 85.2475 26.914C85.2475 25.7487 85.5768 24.6847 86.2355 23.722C86.9195 22.7593 87.8822 21.9993 89.1235 21.442C90.3902 20.8847 91.8722 20.606 93.5695 20.606C96.0775 20.606 98.0788 21.2393 99.5735 22.506C101.068 23.7473 101.891 25.432 102.043 27.56H96.9515C96.8755 26.724 96.5208 26.0653 95.8875 25.584C95.2795 25.0773 94.4562 24.824 93.4175 24.824C92.4548 24.824 91.7075 25.0013 91.1755 25.356C90.6688 25.7107 90.4155 26.2047 90.4155 26.838C90.4155 27.5473 90.7702 28.092 91.4795 28.472C92.1888 28.8267 93.2908 29.194 94.7855 29.574C96.3055 29.954 97.5595 30.3467 98.5475 30.752C99.5355 31.1573 100.384 31.7907 101.093 32.652C101.828 33.488 102.208 34.6027 102.233 35.996C102.233 37.212 101.891 38.3013 101.207 39.264C100.549 40.2267 99.5862 40.9867 98.3195 41.544C97.0782 42.076 95.6215 42.342 93.9495 42.342ZM119.065 42L111.921 33.032V42H106.601V13.88H111.921V29.878L118.989 20.948H125.905L116.633 31.512L125.981 42H119.065ZM131.49 18.44C130.553 18.44 129.767 18.1487 129.134 17.566C128.526 16.958 128.222 16.2107 128.222 15.324C128.222 14.4373 128.526 13.7027 129.134 13.12C129.767 12.512 130.553 12.208 131.49 12.208C132.427 12.208 133.2 12.512 133.808 13.12C134.441 13.7027 134.758 14.4373 134.758 15.324C134.758 16.2107 134.441 16.958 133.808 17.566C133.2 18.1487 132.427 18.44 131.49 18.44ZM134.112 20.948V42H128.792V20.948H134.112ZM149.02 25.318H145.334V42H139.938V25.318H137.544V20.948H139.938V19.884C139.938 17.3 140.673 15.4 142.142 14.184C143.611 12.968 145.828 12.398 148.792 12.474V16.958C147.5 16.9327 146.601 17.148 146.094 17.604C145.587 18.06 145.334 18.8833 145.334 20.074V20.948H149.02V25.318ZM172.608 20.948L159.574 51.956H153.912L158.472 41.468L150.036 20.948H156.002L161.436 35.654L166.946 20.948H172.608Z" fill="#141A26"/>
<defs>
<linearGradient id="paint0_linear_484_9360" x1="15.8555" y1="17.4919" x2="-6.59029e-07" y2="12.8059" gradientUnits="userSpaceOnUse">
<stop stop-color="#5BD9CD"/>
<stop offset="1" stop-color="#088C7F"/>
</linearGradient>
<linearGradient id="paint1_linear_484_9360" x1="14.7657" y1="25.3876" x2="34.4727" y2="38.547" gradientUnits="userSpaceOnUse">
<stop stop-color="#5BD9CD"/>
<stop offset="1" stop-color="#088C7F"/>
</linearGradient>
</defs>
</svg>
